PathFileType	4	(X/Y/Z)	subject01_walk1.trc
DataRate	CameraRate	NumFrames	NumMarkers	Units	OrigDataRate	OrigDataStartFrame	OrigNumFrames
60.00	60.00	       4	41	mm	60.00	126	       251
Frame#	Time	R.ASIS			L.ASIS			V.Sacral			R.Thigh.Upper			R.Thigh.Front			R.Thigh.Rear			L.Thigh.Upper			L.Thigh.Front			L.Thigh.Rear			R.Shank.Upper			R.Shank.Front			R.Shank.Rear			L.Shank.Upper			L.Shank.Front			L.Shank.Rear			R.Heel			R.Midfoot.Sup			R.Midfoot.Lat			R.Toe.Tip			L.Heel			L.Midfoot.Sup			L.Midfoot.Lat			L.Toe.Tip			Sternum			R.Acromium			L.Acromium			R.Bicep			L.Bicep			R.Elbow			L.Elbow			R.Wrist.Med			R.Wrist.Lat			L.Wrist.Med			L.Wrist.Lat			R.Toe.Lat			R.Toe.Med			L.Toe.Lat			L.Toe.Med			R.Temple			L.Temple			Top.Head			
		X1	Y1	Z1	X2	Y2	Z2	X3	Y3	Z3	X4	Y4	Z4	X5	Y5	Z5	X6	Y6	Z6	X7	Y7	Z7	X8	Y8	Z8	X9	Y9	Z9	X10	Y10	Z10	X11	Y11	Z11	X12	Y12	Z12	X13	Y13	Z13	X14	Y14	Z14	X15	Y15	Z15	X16	Y16	Z16	X17	Y17	Z17	X18	Y18	Z18	X19	Y19	Z19	X20	Y20	Z20	X21	Y21	Z21	X22	Y22	Z22	X23	Y23	Z23	X24	Y24	Z24	X25	Y25	Z25	X26	Y26	Z26	X27	Y27	Z27	X28	Y28	Z28	X29	Y29	Z29	X30	Y30	Z30	X31	Y31	Z31	X32	Y32	Z32	X33	Y33	Z33	X34	Y34	Z34	X35	Y35	Z35	X36	Y36	Z36	X37	Y37	Z37	X38	Y38	Z38	X39	Y39	Z39	X40	Y40	Z40	X41	Y41	Z41	

126      1.25000000	    588.90717000	   1051.90112000	    176.09511000	    611.34204000	   1044.15649000	    -86.37766000	    401.39194000	   1052.09277000	     36.13618000	    481.83603000	    739.72626000	    212.43568000	    535.63422000	    664.32666000	    127.92893000	    444.13943000	    625.48486000	    201.89241000	    629.54950000	    743.99292000	   -139.54884000	    720.69708000	    735.76355000	    -67.12119000	    665.83374000	    642.14905000	   -128.59685000	    321.83170000	    474.89267000	    185.39595000	    384.59000000	    413.24869000	    135.52921000	    304.59244000	    389.39871000	    188.93301000	    723.84485000	    444.55359000	   -120.93961000	    788.16528000	    414.82520000	    -70.33574000	    719.19653000	    397.06677000	   -127.96164000	    125.30895000	    110.85136000	     93.72926000	    269.94714000	     89.09666000	     68.43435000	    252.55435000	     72.93040000	    175.82886000	    397.90057000	     43.57354000	    118.86555000	    788.92682000	     65.94314000	    -38.27882000	    942.39545000	    128.58430000	    -14.68241000	    929.93909000	    116.20587000	   -110.95637000	   1055.50928000	    151.62457000	    -44.74218000	    630.76080000	   1352.58740000	     25.66518000	    541.36682000	   1446.78259000	    236.77754000	    561.10138000	   1466.69617000	   -180.34334000	    572.92871000	   1247.15051000	    286.37149000	    541.28284000	   1231.20703000	   -214.23495000	    548.97815000	   1141.13977000	    323.74670000	    474.46347000	   1144.54980000	   -249.07195000	    752.73077000	    970.03516000	    276.38257000	    729.37238000	    942.05615000	    332.87167000	    569.22961000	    910.14325000	   -209.23543000	    521.03668000	    902.47571000	   -266.48422000	    327.16116000	     35.49563000	    196.86848000	    346.50333000	     39.58302000	     86.43159000	    998.93854000	    118.70323000	   -119.93378000	   1010.32526000	    131.37224000	    -18.07142000	    706.25031000	   1574.83435000	    111.83164000	    717.32501000	   1578.33398000	    -26.65863000	    716.99762000	   1751.47339000	     51.17855000
127      1.26000000	    590.82964820	   1050.78781550	    174.81127242	    613.14510030	   1043.40847166	    -87.09060359	    402.33750242	   1050.95963717	     34.48695373	    481.40107779	    739.35706475	    211.64803645	    536.39452780	    663.26824791	    127.76175173	    443.23057398	    625.29612344	    201.93165742	    631.78443126	    743.25810038	   -139.35132108	    724.32852331	    736.70290588	    -67.48154700	    670.19210974	    641.59769402	   -128.02110853	    320.70623778	    475.23285663	    185.88088656	    381.02827430	    412.31943552	    135.95446349	    301.73607440	    390.23427644	    189.46730703	    727.39230984	    443.71489131	   -120.21308105	    790.43295362	    412.53601463	    -68.99143499	    720.91410527	    396.48890124	   -127.04533049	    116.56253375	    115.31964814	     94.17738972	    260.48545041	     90.38802830	     68.89057423	    242.75419887	     74.01700268	    176.21691006	    386.80248671	     43.53028854	    118.54215331	    781.87623106	     65.99608024	    -37.57292790	    936.65487428	    122.94518699	    -13.09951428	    924.85509966	    111.39483323	   -109.31040853	   1050.40952316	    143.08828433	    -41.90327788	    630.98625968	   1351.90953177	     24.12510503	    541.36198433	   1446.15050187	    234.48322837	    561.03180440	   1464.67639417	   -182.61653278	    572.31302790	   1246.94795372	    284.33805825	    542.88873014	   1229.15642223	   -216.23081878	    548.10316735	   1140.85927691	    322.08813384	    477.00224137	   1142.32827630	   -251.19559255	    750.38215715	    967.80158711	    276.68997429	    726.84475269	    940.62223255	    332.85805130	    572.18670680	    907.95332024	   -210.71643886	    523.70363666	    900.06096454	   -267.93941682	    317.18755445	     35.35719596	    197.24843555	    336.15995947	     39.17261520	     86.39334466	    993.37636283	    111.78123003	   -117.88526578	   1004.78733103	    123.89673411	    -15.89814799	    706.37072087	   1574.16637097	    109.45662333	    717.01425301	   1577.05095301	    -29.05386223	    716.87891291	   1750.55696979	     48.50406399
128      1.27000000	    592.38520815	   1050.01434407	    173.65585881	    613.95445922	   1042.32917618	    -87.61997853	    403.53411560	   1049.97638434	     32.73592285	    482.73060210	    739.39957019	    212.34370539	    537.31999235	    662.29792349	    128.09982253	    443.18496019	    625.02858125	    201.72510145	    634.00689712	    742.62427706	   -139.14503460	    728.22933302	    737.64050606	    -68.63937126	    673.48881439	    641.16128929	   -126.39853428	    320.25959124	    475.66547754	    185.77737187	    378.76200682	    411.58191171	    136.50682649	    299.23417961	    391.31876833	    189.91946575	    729.93058440	    442.42561338	   -118.76113028	    791.78318575	    410.08995755	    -67.52958898	    722.36445725	    396.05953260	   -126.09366519	    107.83236163	    120.58211700	     94.64887333	    250.85269708	     91.90969150	     69.42015023	    232.71339590	     75.35479070	    176.65358161	    375.20482086	     43.47859230	    118.18627944	    773.67838365	     66.36250874	    -37.06425738	    929.96923483	    116.80582246	    -11.71003588	    918.78701343	    106.19010925	   -107.85762318	   1044.32160631	    133.52183132	    -39.29168425	    631.57731888	   1351.06462224	     22.26271019	    541.19817971	   1445.51437505	    232.06264673	    561.50713648	   1462.91393952	   -185.37066477	    571.22155724	   1246.79058603	    282.36810453	    544.86671123	   1226.92328072	   -218.39690103	    547.04174386	   1140.76747189	    320.26765006	    479.44175658	   1139.98625725	   -253.26544123	    747.33273631	    965.49226162	    276.78926370	    723.78874505	    939.13400912	    333.04195051	    575.20483105	    906.03583098	   -212.41126225	    526.97052044	    897.70666623	   -269.63877189	    307.36130517	     35.11474646	    197.88602376	    325.44614862	     38.71470757	     86.36194703	    986.51658999	    104.03684357	   -116.10917791	    998.19138416	    115.48238481	    -14.00630199	    706.08129906	   1573.69560865	    106.86415362	    716.50150901	   1576.12898140	    -31.63069866	    716.73441374	   1749.86180939	     45.82713477
129      1.28000000	    592.56139959	   1049.79684560	    172.92145339	    614.48958977	   1040.85859960	    -88.49290427	    404.97218453	   1049.14980859	     30.91868699	    485.17874019	    739.46855936	    213.96505332	    538.12390921	    661.49455303	    129.05995786	    444.33390733	    624.49235547	    201.38621157	    636.18173904	    742.12874310	   -138.99353657	    732.14552259	    738.36765385	    -70.86149399	    675.52955389	    640.99908275	   -124.54709993	    319.50535492	    476.41728490	    185.33646790	    378.09141300	    411.33982194	    137.13807965	    296.97241373	    392.83110804	    190.42407926	    731.08956636	    440.95912720	   -116.92132549	    791.83267905	    407.37975065	    -65.71959306	    723.54585268	    395.80039906	   -125.23361700	     99.25307781	    126.71474158	     95.14716824	    241.17529979	     93.72767505	     69.99580130	    222.53775270	     77.00684911	    177.12265656	    363.17383976	     43.39342890	    117.81095006	    764.66533040	     67.02713656	    -36.77376659	    922.58785669	    110.54343971	    -10.47345111	    911.90370054	    100.82417942	   -106.62038180	   1037.42130828	    123.44190490	    -37.02727357	    632.69175951	   1349.93571007	     19.99837098	    541.10195604	   1445.14864440	    229.39671577	    562.54146963	   1461.35636179	   -188.41111529	    570.06475241	   1246.67426475	    280.38257227	    546.98995558	   1224.73814944	   -220.65719266	    545.76047426	   1140.88572077	    318.28590276	    481.79160037	   1137.43866880	   -255.03919443	    743.90430469	    962.92802752	    276.39616413	    720.35826809	    937.31915523	    333.42126312	    577.99026868	    904.20526704	   -213.96284915	    530.33436248	    895.71631878	   -271.42110488	    295.56736286	     34.62219784	    198.29526530	    314.41339746	     38.21488776	     86.34950493	    978.56759225	     95.84811674	   -114.64209775	    990.68384553	    106.57929083	    -12.43703507	    705.62059510	   1573.31865176	    104.14236545	    716.52874261	   1575.84871540	    -34.28865366	    716.41159111	   1749.44883444	     43.18277969
